<svg 
 xmlns="http://www.w3.org/2000/svg"
 xmlns:xlink="http://www.w3.org/1999/xlink"
 width="50" height="50">
<path fill="rgb(255, 255, 255)"
 d="M50.001,25.000 C50.001,38.809 38.808,50.003 25.000,50.003 C11.190,50.003 -0.003,38.809 -0.003,25.000 C-0.003,11.190 11.190,-0.003 25.000,-0.003 C38.808,-0.003 50.001,11.190 50.001,25.000 M25.000,4.487 C13.669,4.487 4.486,13.670 4.486,25.000 C4.486,36.329 13.669,45.510 25.000,45.510 C36.330,45.510 45.512,36.329 45.512,25.000 C45.512,13.670 36.330,4.487 25.000,4.487 M37.640,34.370 L32.371,34.370 L32.371,19.039 L27.864,19.039 L27.864,38.641 L37.640,38.641 L37.640,34.370 ZM24.805,11.652 L20.301,11.652 L20.301,26.193 C20.301,27.045 19.827,27.903 18.760,27.903 C17.925,27.903 17.242,27.219 17.242,26.193 L17.242,11.652 L12.751,11.652 L12.751,26.014 C12.751,29.638 15.427,31.457 18.802,31.457 C22.214,31.457 24.805,29.590 24.805,26.014 L24.805,11.652 Z"/>
</svg>